<?xml version="1.0" standalone="no"?>
<!DOCTYPE svg PUBLIC "-//W3C//DTD SVG 20010904//EN"
 "http://www.w3.org/TR/2001/REC-SVG-20010904/DTD/svg10.dtd">
<svg version="1.0" xmlns="http://www.w3.org/2000/svg"
 width="512.000000pt" height="512.000000pt" viewBox="0 0 512.000000 512.000000"
 preserveAspectRatio="xMidYMid meet">

<g transform="translate(0.000000,512.000000) scale(0.100000,-0.100000)"
fill="#000000" stroke="none">
<path d="M2096 4338 c-45 -78 -1672 -2931 -1731 -3036 -32 -58 -54 -107 -49
-111 13 -12 872 -451 881 -451 5 1 314 536 687 1190 l679 1190 677 -1185 c373
-652 680 -1189 683 -1192 7 -7 898 449 895 458 -2 3 -410 720 -908 1592 l-905
1586 -442 1 -442 0 -25 -42z"/>
</g>
</svg>
