<?xml version="1.0" standalone="no"?>
<!DOCTYPE svg PUBLIC "-//W3C//DTD SVG 20010904//EN"
 "http://www.w3.org/TR/2001/REC-SVG-20010904/DTD/svg10.dtd">
<svg version="1.0" xmlns="http://www.w3.org/2000/svg"
 width="200.000000pt" height="200.000000pt" viewBox="0 0 200.000000 200.000000"
 preserveAspectRatio="xMidYMid meet">

<g transform="translate(0.000000,200.000000) scale(0.100000,-0.100000)"
fill="#0033ff" stroke="none">
<path d="M893 1835 c-6 -7 -9 -16 -5 -20 4 -4 -6 -3 -23 1 l-29 7 17 -26 c22
-34 22 -38 -6 -28 -26 10 -77 3 -77 -10 0 -5 -7 -9 -15 -9 -8 0 -15 -6 -15
-13 0 -7 -9 -20 -20 -30 -12 -10 -18 -22 -15 -27 3 -5 -3 -11 -14 -15 -17 -5
-25 -16 -33 -43 -3 -12 -52 -47 -61 -44 -5 1 -6 -1 -3 -6 3 -5 -6 -20 -20 -33
-14 -13 -35 -37 -46 -54 l-20 -30 30 32 c17 17 34 28 38 25 4 -4 5 -2 3 3 -3
6 11 26 30 45 34 35 34 35 28 8 -4 -15 -3 -29 1 -32 4 -2 48 15 97 38 137 65
177 75 265 61 58 -9 75 -9 127 -2 l32 4 -15 -29 c-9 -17 -11 -27 -6 -24 6 3
13 0 16 -6 3 -7 3 -3 1 9 -3 12 0 25 6 29 8 5 9 3 4 -5 -4 -7 2 -22 15 -36 19
-20 21 -27 10 -40 -14 -17 -15 -17 23 -33 30 -13 36 -45 12 -72 -13 -14 -11
-19 11 -45 23 -27 24 -31 9 -41 -9 -7 -15 -16 -14 -21 2 -10 36 -34 46 -32 26
4 52 -3 57 -16 4 -12 0 -14 -20 -9 -15 4 -29 2 -33 -3 -4 -7 -22 -7 -56 -1
-45 9 -55 7 -95 -14 -25 -14 -55 -40 -68 -59 -21 -31 -28 -34 -85 -39 -49 -4
-63 -9 -65 -23 -3 -16 3 -18 45 -15 44 3 48 1 51 -20 3 -17 -2 -25 -17 -29
-17 -4 -18 -9 -10 -31 6 -15 17 -34 25 -43 9 -10 16 -30 16 -47 1 -23 8 -33
34 -46 25 -11 34 -22 34 -40 0 -17 9 -29 29 -39 27 -13 30 -13 34 3 2 10 -2
32 -11 49 -19 40 -11 47 37 33 21 -7 49 -12 62 -12 19 0 21 -2 9 -10 -13 -8
-13 -10 2 -10 9 0 20 4 23 10 3 5 14 10 23 10 14 0 15 -2 2 -10 -13 -8 -13
-10 0 -14 8 -2 26 -4 40 -3 21 2 26 -3 28 -27 4 -35 -17 -89 -33 -82 -8 3 -10
-4 -7 -19 6 -35 -15 -39 -59 -10 -52 34 -60 26 -21 -20 18 -19 38 -48 46 -64
14 -26 14 -28 -2 -27 -9 1 -28 7 -41 15 -13 7 -21 8 -17 3 3 -6 2 -13 -3 -16
-17 -11 -22 12 -6 27 19 19 19 27 1 27 -21 0 -56 49 -56 77 0 20 -4 24 -17 18
-10 -4 -28 -7 -40 -7 -12 1 -25 -3 -28 -8 -3 -6 -26 -10 -50 -10 -31 0 -51 -7
-72 -24 -26 -22 -31 -23 -53 -10 -14 7 -37 13 -52 14 -50 0 -28 -32 30 -45 29
-6 32 -10 32 -45 0 -54 40 -83 102 -74 36 5 41 4 30 -7 -8 -8 -38 -13 -85 -14
-39 -1 -89 -8 -110 -15 -36 -14 -40 -13 -53 4 -13 19 -16 17 -54 -24 -53 -57
-53 -77 0 -76 33 1 43 6 53 26 12 24 14 25 142 26 72 0 140 4 153 8 13 4 22 3
22 -3 0 -6 6 -8 14 -5 10 4 14 -1 13 -15 -1 -14 -5 -17 -13 -10 -8 7 -33 7
-76 -1 -97 -16 -109 -20 -103 -30 3 -5 1 -12 -5 -15 -6 -4 6 -18 27 -32 29
-20 53 -27 101 -29 37 -2 62 1 62 7 0 6 5 7 11 4 6 -4 8 -9 5 -12 -3 -3 -1
-15 5 -26 8 -14 8 -18 0 -13 -6 4 -11 1 -11 -6 0 -18 49 -16 61 3 7 12 9 12 9
-1 1 -8 6 -4 11 9 5 13 12 22 14 19 9 -9 -13 -55 -27 -56 -15 -1 -52 -9 -79
-17 -10 -4 -19 -2 -19 3 0 11 -69 10 -88 -1 -6 -5 -12 -5 -12 -2 0 3 -10 -1
-22 -9 -12 -9 -28 -16 -35 -16 -8 0 -31 -12 -52 -26 l-39 -25 -41 21 -41 20 0
-29 c0 -16 5 -33 10 -36 6 -4 8 -10 5 -15 -10 -17 35 -21 57 -6 22 16 79 22
91 10 3 -4 0 -16 -7 -28 -8 -12 -12 -36 -9 -59 7 -49 34 -61 123 -52 174 16
315 63 464 153 91 55 256 205 256 233 0 10 6 19 13 19 16 0 98 135 126 208
l21 52 -28 0 c-15 0 -32 -4 -37 -9 -24 -21 -291 -43 -269 -22 13 14 244 70
260 64 7 -2 23 2 36 11 12 9 30 16 40 16 10 0 20 10 23 22 33 147 40 236 25
346 -13 101 -34 190 -48 204 -13 13 -82 19 -82 8 0 -4 -8 -7 -17 -5 -10 1 -24
-2 -30 -8 -7 -5 -13 -6 -13 -1 0 4 -7 -1 -16 -12 -8 -10 -12 -12 -8 -4 7 13 5
13 -9 1 -9 -7 -17 -10 -17 -6 0 4 -8 1 -17 -6 -9 -8 -14 -9 -10 -3 3 6 0 11
-8 11 -11 0 -12 -5 -3 -21 10 -19 10 -20 -6 -7 -16 13 -17 13 -14 0 1 -7 -2
-16 -7 -17 -6 -2 -17 -9 -25 -15 -9 -7 -8 -4 3 9 30 36 18 39 -13 4 -36 -40
-44 -106 -11 -95 11 3 28 -2 42 -14 19 -15 21 -21 11 -33 -6 -8 -8 -19 -4 -23
4 -5 -1 -5 -11 -2 -11 4 -16 3 -12 -3 4 -7 -3 -9 -19 -6 -15 3 -24 1 -21 -5 4
-5 12 -6 18 -2 7 4 6 0 -2 -10 -15 -18 -26 -23 -16 -7 3 6 2 10 -3 10 -18 0
-20 -38 -4 -62 14 -20 14 -21 1 -11 -9 7 -19 10 -22 6 -4 -3 -7 5 -7 20 0 40
-18 77 -37 78 -11 0 -13 3 -5 6 15 6 16 35 0 51 -7 7 -11 35 -10 64 1 47 0 49
-7 20 -5 -18 -12 -36 -16 -40 -4 -4 -5 6 -1 21 9 40 -2 51 -25 25 l-21 -23 6
25 c3 14 6 34 6 45 1 34 16 51 33 36 13 -10 16 -9 20 6 3 10 3 0 1 -22 -4 -30
-3 -36 5 -25 6 8 11 30 11 49 0 25 -3 32 -15 27 -8 -3 -15 0 -15 5 0 6 -13 27
-30 46 -37 42 -39 65 -3 32 15 -13 21 -16 14 -6 -8 9 -11 20 -8 23 3 4 -1 13
-9 21 -11 11 -14 28 -10 59 3 33 1 44 -9 44 -8 0 -17 -5 -20 -10 -5 -8 -11 -8
-19 -1 -7 6 -15 8 -19 5 -3 -3 -3 3 0 14 4 16 1 19 -21 15 -19 -4 -26 -1 -26
11 0 9 -7 16 -15 16 -8 0 -15 7 -15 15 0 8 -3 14 -7 13 -5 -2 -28 19 -53 45
-27 28 -54 47 -67 47 -12 0 -27 9 -33 20 -9 16 -15 18 -29 10 -14 -7 -22 -6
-31 5 -6 7 -18 11 -26 8 -8 -3 -21 0 -29 7 -8 7 -15 9 -15 4 0 -4 -5 -3 -12 4
-7 7 -18 12 -26 12 -8 0 -26 8 -40 18 -39 27 -56 31 -69 17z m431 -711 l16
-23 -30 17 c-23 13 -32 14 -42 4 -9 -9 -8 -12 9 -12 12 0 25 -5 29 -12 5 -7 2
-9 -8 -6 -8 4 -41 9 -74 14 -37 4 -52 9 -41 13 10 4 18 11 17 16 -1 11 65 23
92 17 9 -2 24 -15 32 -28z m43 -50 c-3 -3 -12 -4 -19 -1 -8 3 -5 6 6 6 11 1
17 -2 13 -5z m67 -23 c6 -10 -51 -8 -61 3 -3 3 8 6 25 6 17 0 33 -4 36 -9z
m76 -63 c0 -12 -3 -18 -7 -14 -10 10 -11 46 -1 40 4 -3 8 -15 8 -26z m149 18
c9 -11 9 -16 -1 -22 -7 -4 -10 -4 -6 1 4 4 3 14 -3 22 -6 7 -9 13 -6 13 2 0
10 -6 16 -14z m-254 -7 c9 -13 -33 -59 -54 -59 -9 0 -29 -7 -45 -15 -44 -23
-66 -18 -26 6 19 12 38 27 42 33 6 8 8 7 8 -1 0 -23 19 -14 35 17 16 31 29 37
40 19z m230 1 c3 -6 -1 -7 -9 -4 -18 7 -21 14 -7 14 6 0 13 -4 16 -10z m-351
-24 c-34 -24 -72 -29 -107 -15 -32 14 -32 14 38 20 39 3 74 6 80 7 5 1 0 -4
-11 -12z m258 -221 c-3 -20 -1 -24 12 -19 14 6 16 2 10 -22 -9 -40 -14 -46
-30 -40 -9 4 -14 -2 -14 -17 0 -21 0 -21 -19 -2 -22 24 -37 65 -22 65 5 0 13
-5 16 -10 11 -18 35 10 35 41 0 16 4 29 9 29 4 0 6 -11 3 -25z m-177 -195 c0
-56 -5 -82 -19 -102 -23 -34 -38 -36 -30 -4 4 17 2 24 -8 22 -33 -7 -48 -20
-48 -42 0 -17 -6 -24 -20 -24 -11 0 -20 5 -20 12 0 6 -7 3 -16 -8 -8 -10 -13
-13 -9 -6 9 17 -10 15 -25 -3 -10 -12 -10 -15 1 -15 10 0 10 -3 1 -12 -18 -18
-27 -1 -13 26 8 13 10 29 7 35 -12 19 53 66 93 66 27 0 36 4 36 17 0 10 6 23
14 30 11 11 13 7 8 -24 -4 -24 -2 -38 5 -38 7 0 9 32 5 99 -3 55 -2 102 1 106
16 15 37 -63 37 -135z m-48 18 c-3 -8 -6 -5 -6 6 -1 11 2 17 5 13 3 -3 4 -12
1 -19z m-250 -355 c-3 -10 -5 -4 -5 12 0 17 2 24 5 18 2 -7 2 -21 0 -30z"/>
<path d="M728 1189 c-26 -10 -63 -19 -83 -21 -19 -1 -35 -6 -35 -10 0 -5 -11
-13 -25 -18 -14 -5 -26 -15 -26 -22 -5 -47 -4 -68 4 -68 5 0 11 9 14 20 3 11
13 20 22 21 9 0 23 2 33 4 9 2 38 -2 64 -7 l48 -10 -60 -28 c-37 -17 -71 -41
-88 -62 -42 -55 -31 -81 14 -33 26 27 70 34 70 11 0 -22 30 -27 86 -17 l49 9
-32 -28 c-18 -16 -63 -38 -105 -51 -88 -28 -101 -36 -46 -31 25 3 38 1 35 -5
-17 -27 125 40 180 86 54 44 63 56 63 84 0 33 -30 77 -51 77 -7 0 -9 10 -5 26
6 22 1 33 -25 60 -37 39 -37 39 -101 13z"/>
<path d="M1676 1107 c3 -10 9 -15 12 -12 3 3 0 11 -7 18 -10 9 -11 8 -5 -6z"/>
<path d="M630 900 c20 -13 33 -13 25 0 -3 6 -14 10 -23 10 -15 0 -15 -2 -2
-10z"/>
<path d="M370 888 c1 -7 9 -29 20 -48 l19 -35 1 28 c0 32 -16 67 -30 67 -6 0
-10 -6 -10 -12z"/>
<path d="M340 885 c0 -6 -9 -16 -21 -23 -12 -8 -18 -9 -15 -3 4 7 1 8 -8 5 -9
-3 -14 -10 -11 -15 3 -4 -4 -6 -15 -4 -11 2 -20 -1 -20 -6 0 -6 -4 -7 -10 -4
-6 3 -10 2 -10 -3 0 -5 -11 -8 -25 -7 -16 2 -23 -1 -18 -8 4 -6 0 -8 -10 -4
-9 3 -19 1 -23 -5 -5 -7 -2 -8 6 -3 8 5 11 4 6 -3 -4 -6 -14 -8 -23 -5 -10 4
-14 2 -10 -4 4 -6 1 -11 -6 -10 -32 1 -48 -4 -42 -13 3 -5 0 -7 -8 -4 -8 3
-20 -2 -27 -11 -11 -13 -8 -30 19 -102 49 -139 112 -234 231 -353 76 -76 130
-120 195 -158 87 -52 102 -55 150 -37 16 7 18 6 8 -6 -7 -7 -13 -16 -13 -20 0
-7 57 -30 107 -44 l22 -6 -24 73 c-13 40 -31 99 -40 130 -10 37 -29 73 -54
102 -32 37 -43 60 -57 123 -23 109 -27 114 -64 100 -40 -15 -59 -3 -87 54 -20
40 -55 153 -67 219 -5 26 -35 72 -36 55z m94 -570 c-21 -16 -54 -20 -54 -6 0
8 62 30 69 24 3 -2 -4 -10 -15 -18z"/>
<path d="M435 840 c3 -5 8 -10 11 -10 2 0 4 5 4 10 0 6 -5 10 -11 10 -5 0 -7
-4 -4 -10z"/>
<path d="M442 792 c2 -11 -4 -27 -12 -36 -12 -16 -12 -21 1 -44 8 -15 21 -27
29 -27 10 0 15 -11 15 -32 0 -35 8 -48 25 -38 8 5 8 11 -1 22 -7 8 -14 22 -15
31 -2 10 -6 36 -10 59 -4 27 -2 48 5 56 13 16 5 27 -21 27 -13 0 -18 -6 -16
-18z"/>
<path d="M762 722 c-7 -5 -15 -26 -18 -48 l-6 -39 26 30 c36 42 35 80 -2 57z"/>
<path d="M861 604 c0 -11 3 -14 6 -6 3 7 2 16 -1 19 -3 4 -6 -2 -5 -13z"/>
</g>
</svg>
